# xmcd
#
# Track frame offsets: 
#        150
#        20384
#        52365
#        75159
#        92318
#        121231
#        138896
#        159520
#        182557
#        201854
#        218339
#        235720
#
# Disc length: 3611 seconds
#
# Revision: 0
# Processed by: cddbd v1.5.2PL0 Copyright (c) Steve Scherf et al.
# Submitted via: ExactAudioCopy v0.99pb4
#
DISCID=8a0e190c
DTITLE=Change - Change Of Heart
DYEAR=1984
DGENRE=R&B
TTITLE0=Say You Love Me Again
TTITLE1=Change Of Heart
TTITLE2=Warm
TTITLE3=True Love
TTITLE4=You Are My Melody
TTITLE5=Lovely Lady
TTITLE6=Got My Eyes On You
TTITLE7=It Burns Me Up
TTITLE8=Change Of Heart (Single Version)
TTITLE9=You Are My Melody (Single Version)
TTITLE10=It Burns Me Up (Single Version)
TTITLE11=Change Of Heart (12" Alternate Dance Version)
EXTD=
EXTT0=
EXTT1=
EXTT2=
EXTT3=
EXTT4=
EXTT5=
EXTT6=
EXTT7=
EXTT8=
EXTT9=
EXTT10=
EXTT11=
PLAYORDER=
